STARTFONT 2.1
FONT -Bitstream-Swiss 742-Medium-R-Normal--26-171-110-110-P-150-ISO8859-1
SIZE 17 110 110
FONTBOUNDINGBOX 24 26 0 -6

STARTPROPERTIES 27
FONTNAME_REGISTRY ""
FAMILY_NAME "Swiss 742"
FOUNDRY "Bitstream"
WEIGHT_NAME "Medium"
SETWIDTH_NAME "Normal"
SLANT "R"
ADD_STYLE_NAME "Sans Serif"
PIXEL_SIZE 26
POINT_SIZE 171
RESOLUTION_X 110
RESOLUTION_Y 110
SPACING "P"
AVERAGE_WIDTH 150
CHARSET_REGISTRY "ISO8859"
CHARSET_ENCODING "1"
CAP_HEIGHT 16
X_HEIGHT 10
CHARSET_COLLECTIONS "ISO8859-1"
FULL_NAME "Swiss742"
COPYRIGHT "Copyright 1989 by Bitstream, Inc. All rights reserved."
NOTICE "Swiss 742 is a registered trademark of Bitstream, Inc."
NOTICE "This Font is licensed for use on Hewlett-Packard Equipment only."
WEIGHT 10
QUAD_WIDTH 15
DEFAULT_CHAR 0
FONT_DESCENT 6
FONT_ASCENT 20
ENDPROPERTIES

CHARS 191

STARTCHAR PrintableSpace
ENCODING 32
SWIDTH 277 0
DWIDTH 7 0
BBX 1 1 0 0
BITMAP
00
ENDCHAR

STARTCHAR Exclamation
ENCODING 33
SWIDTH 370 0
DWIDTH 8 0
BBX 3 18 3 -1
BITMAP
E0
E0
E0
E0
E0
E0
E0
E0
E0
E0
E0
E0
E0
00
00
E0
E0
E0
ENDCHAR

STARTCHAR NeutrlDblQuote
ENCODING 34
SWIDTH 300 0
DWIDTH 8 0
BBX 6 6 1 11
BITMAP
CC
CC
CC
CC
CC
CC
ENDCHAR

STARTCHAR NumberSign
ENCODING 35
SWIDTH 769 0
DWIDTH 18 0
BBX 16 18 1 -1
BITMAP
018C
018C
018C
0318
0318
1FFF
3FFE
0630
0630
0C60
0C60
7FFC
FFF8
18C0
18C0
3180
3180
3180
ENDCHAR

STARTCHAR DollarSign
ENCODING 36
SWIDTH 553 0
DWIDTH 12 0
BBX 11 22 1 -3
BITMAP
0400
0400
0400
1E00
7F80
E5C0
C4C0
C400
E400
7C00
3E00
0F80
07C0
04E0
0460
C460
E4E0
7FC0
1F00
0400
0400
0400
ENDCHAR

STARTCHAR PerCentSign
ENCODING 37
SWIDTH 984 0
DWIDTH 21 0
BBX 19 18 1 -1
BITMAP
180600
7E0600
660C00
C30C00
C31800
C31800
663000
7E6000
186000
00C300
00CFC0
018CC0
031860
031860
061860
060CC0
0C0FC0
0C0300
ENDCHAR

STARTCHAR Ampersand
ENCODING 38
SWIDTH 606 0
DWIDTH 13 0
BBX 12 18 1 -1
BITMAP
1F80
3F80
7000
6000
6000
60C0
30C0
1FF0
3FF0
70C0
E0C0
C0C0
C0C0
C0C0
C0C0
E0C0
7FC0
3FC0
ENDCHAR

STARTCHAR SingleCloseQut
ENCODING 39
SWIDTH 255 0
DWIDTH 7 0
BBX 5 6 1 11
BITMAP
38
38
70
60
C0
80
ENDCHAR

STARTCHAR OpenParen
ENCODING 40
SWIDTH 315 0
DWIDTH 8 0
BBX 5 22 2 -3
BITMAP
18
30
30
60
60
60
C0
C0
C0
C0
C0
C0
C0
C0
C0
C0
60
60
60
30
30
18
ENDCHAR

STARTCHAR CloseParen
ENCODING 41
SWIDTH 315 0
DWIDTH 8 0
BBX 5 22 1 -3
BITMAP
C0
60
60
30
30
30
18
18
18
18
18
18
18
18
18
18
30
30
30
60
60
C0
ENDCHAR

STARTCHAR Asterisk
ENCODING 42
SWIDTH 528 0
DWIDTH 16 0
BBX 12 12 2 1
BITMAP
0600
4620
E670
76E0
3FC0
1F80
1F80
3FC0
76E0
E670
4620
0600
ENDCHAR

STARTCHAR PlusSign
ENCODING 43
SWIDTH 833 0
DWIDTH 16 0
BBX 12 12 2 1
BITMAP
0600
0600
0600
0600
0600
FFF0
FFF0
0600
0600
0600
0600
0600
ENDCHAR

STARTCHAR Comma
ENCODING 44
SWIDTH 277 0
DWIDTH 7 0
BBX 5 6 1 -3
BITMAP
38
38
70
60
C0
80
ENDCHAR

STARTCHAR Hyphen
ENCODING 45
SWIDTH 331 0
DWIDTH 16 0
BBX 12 2 2 6
BITMAP
FFF0
FFF0
ENDCHAR

STARTCHAR Period
ENCODING 46
SWIDTH 277 0
DWIDTH 7 0
BBX 3 3 2 0
BITMAP
E0
E0
E0
ENDCHAR

STARTCHAR Slash
ENCODING 47
SWIDTH 370 0
DWIDTH 13 0
BBX 12 22 1 -3
BITMAP
0030
0030
0060
0060
00C0
00C0
0180
0180
0300
0300
0600
0600
0C00
0C00
1800
1800
3000
3000
6000
6000
C000
C000
ENDCHAR

STARTCHAR Zero
ENCODING 48
SWIDTH 553 0
DWIDTH 12 0
BBX 10 16 1 0
BITMAP
1E00
3F00
6180
6180
C0C0
C0C0
C0C0
C0C0
C0C0
C0C0
C0C0
C0C0
6180
6180
3F00
1E00
ENDCHAR

STARTCHAR One
ENCODING 49
SWIDTH 553 0
DWIDTH 11 0
BBX 6 16 2 0
BITMAP
0C
3C
FC
CC
0C
0C
0C
0C
0C
0C
0C
0C
0C
0C
0C
0C
ENDCHAR

STARTCHAR Two
ENCODING 50
SWIDTH 553 0
DWIDTH 12 0
BBX 10 16 1 0
BITMAP
1E00
7F80
E1C0
C0C0
C0C0
00C0
0180
0380
0700
0E00
1C00
3800
7000
E000
FFC0
FFC0
ENDCHAR

STARTCHAR Three
ENCODING 51
SWIDTH 553 0
DWIDTH 12 0
BBX 10 16 1 0
BITMAP
1E00
7F80
E1C0
C0C0
00C0
00C0
0180
0F00
0F80
01C0
00C0
00C0
C0C0
E1C0
7F80
1E00
ENDCHAR

STARTCHAR Four
ENCODING 52
SWIDTH 553 0
DWIDTH 12 0
BBX 11 16 1 0
BITMAP
0380
0780
0780
0D80
1980
1980
3180
6180
6180
C180
FFE0
FFE0
0180
0180
0180
0180
ENDCHAR

STARTCHAR Five
ENCODING 53
SWIDTH 553 0
DWIDTH 12 0
BBX 10 16 1 0
BITMAP
FF80
FF80
C000
C000
C000
DE00
FF80
E180
00C0
00C0
00C0
00C0
C0C0
E180
7F80
1E00
ENDCHAR

STARTCHAR Six
ENCODING 54
SWIDTH 553 0
DWIDTH 12 0
BBX 10 16 1 0
BITMAP
1E00
7F80
61C0
C0C0
C000
C000
DE00
FF80
E180
C0C0
C0C0
C0C0
C0C0
6180
7F80
1E00
ENDCHAR

STARTCHAR Seven
ENCODING 55
SWIDTH 553 0
DWIDTH 12 0
BBX 10 16 1 0
BITMAP
FFC0
FFC0
01C0
0180
0380
0300
0700
0600
0600
0E00
0C00
0C00
1C00
1800
1800
3800
ENDCHAR

STARTCHAR Eight
ENCODING 56
SWIDTH 553 0
DWIDTH 12 0
BBX 10 16 1 0
BITMAP
1E00
7F80
6180
C0C0
C0C0
C0C0
6180
3F00
7F80
6180
C0C0
C0C0
C0C0
6180
7F80
1E00
ENDCHAR

STARTCHAR Nine
ENCODING 57
SWIDTH 553 0
DWIDTH 12 0
BBX 10 16 1 0
BITMAP
1E00
7F80
6180
C0C0
C0C0
C0C0
C0C0
61C0
7FC0
1EC0
00C0
00C0
C0C0
E180
7F80
1E00
ENDCHAR

STARTCHAR Colon
ENCODING 58
SWIDTH 370 0
DWIDTH 9 0
BBX 3 10 3 0
BITMAP
E0
E0
E0
00
00
00
00
E0
E0
E0
ENDCHAR

STARTCHAR Simicolon
ENCODING 59
SWIDTH 370 0
DWIDTH 9 0
BBX 5 13 1 -3
BITMAP
38
38
38
00
00
00
00
38
38
70
60
C0
80
ENDCHAR

STARTCHAR LessThanSign
ENCODING 60
SWIDTH 833 0
DWIDTH 16 0
BBX 12 12 2 1
BITMAP
0030
00F0
03C0
0F00
3C00
F000
F000
3C00
0F00
03C0
00F0
0030
ENDCHAR

STARTCHAR EqualsSign
ENCODING 61
SWIDTH 833 0
DWIDTH 16 0
BBX 12 6 2 4
BITMAP
FFF0
FFF0
0000
0000
FFF0
FFF0
ENDCHAR

STARTCHAR GreatrThanSign
ENCODING 62
SWIDTH 833 0
DWIDTH 16 0
BBX 12 12 2 1
BITMAP
C000
F000
3C00
0F00
03C0
00F0
00F0
03C0
0F00
3C00
F000
C000
ENDCHAR

STARTCHAR QuestionMark
ENCODING 63
SWIDTH 491 0
DWIDTH 11 0
BBX 9 18 1 -1
BITMAP
3E00
FF00
C380
0180
0180
0180
0380
0700
0E00
1C00
1C00
1C00
1C00
0000
0000
1C00
1C00
1C00
ENDCHAR

STARTCHAR CommerclAtSign
ENCODING 64
SWIDTH 1000 0
DWIDTH 17 0
BBX 15 18 1 -1
BITMAP
07E0
1FF8
3818
600C
600C
C0FC
C3FC
C30C
C60C
C60C
C60C
C31C
C3FE
60E6
6000
3800
1FFC
07F8
ENDCHAR

STARTCHAR A
ENCODING 65
SWIDTH 713 0
DWIDTH 16 0
BBX 14 16 1 0
BITMAP
0300
0300
0780
0780
0CC0
0CC0
1CE0
1860
3870
3030
3FF0
7FF8
6018
E01C
C00C
C00C
ENDCHAR

STARTCHAR B
ENCODING 66
SWIDTH 641 0
DWIDTH 14 0
BBX 12 16 1 0
BITMAP
FF00
FFC0
C0C0
C060
C060
C060
C0C0
FF80
FFC0
C060
C030
C030
C030
C060
FFE0
FF80
ENDCHAR

STARTCHAR C
ENCODING 67
SWIDTH 662 0
DWIDTH 16 0
BBX 14 16 1 0
BITMAP
07C0
1FF0
3C78
701C
600C
E000
C000
C000
C000
C000
E000
600C
701C
3C78
1FF0
07C0
ENDCHAR

STARTCHAR D
ENCODING 68
SWIDTH 718 0
DWIDTH 15 0
BBX 13 16 1 0
BITMAP
FF00
FFC0
C1E0
C070
C030
C038
C018
C018
C018
C018
C038
C030
C070
C1E0
FFC0
FF00
ENDCHAR

STARTCHAR E
ENCODING 69
SWIDTH 604 0
DWIDTH 13 0
BBX 11 16 1 0
BITMAP
FFE0
FFE0
C000
C000
C000
C000
C000
FFE0
FFE0
C000
C000
C000
C000
C000
FFE0
FFE0
ENDCHAR

STARTCHAR F
ENCODING 70
SWIDTH 550 0
DWIDTH 12 0
BBX 10 16 1 0
BITMAP
FFC0
FFC0
C000
C000
C000
C000
C000
FFC0
FFC0
C000
C000
C000
C000
C000
C000
C000
ENDCHAR

STARTCHAR G
ENCODING 71
SWIDTH 744 0
DWIDTH 16 0
BBX 14 16 1 0
BITMAP
07C0
1FF0
3C78
701C
600C
E000
C000
C000
C0FC
C0FC
E00C
600C
700C
3C3C
1FF8
07E0
ENDCHAR

STARTCHAR H
ENCODING 72
SWIDTH 714 0
DWIDTH 14 0
BBX 12 16 1 0
BITMAP
C030
C030
C030
C030
C030
C030
C030
FFF0
FFF0
C030
C030
C030
C030
C030
C030
C030
ENDCHAR

STARTCHAR I
ENCODING 73
SWIDTH 263 0
DWIDTH 6 0
BBX 2 16 2 0
BITMAP
C0
C0
C0
C0
C0
C0
C0
C0
C0
C0
C0
C0
C0
C0
C0
C0
ENDCHAR

STARTCHAR J
ENCODING 74
SWIDTH 528 0
DWIDTH 12 0
BBX 10 16 1 0
BITMAP
00C0
00C0
00C0
00C0
00C0
00C0
00C0
00C0
00C0
00C0
00C0
C0C0
C0C0
E1C0
7F80
3F00
ENDCHAR

STARTCHAR K
ENCODING 75
SWIDTH 650 0
DWIDTH 14 0
BBX 13 16 1 0
BITMAP
C070
C0E0
C1C0
C380
C700
CE00
DC00
F800
FC00
CE00
C700
C380
C1C0
C0E0
C070
C038
ENDCHAR

STARTCHAR L
ENCODING 76
SWIDTH 535 0
DWIDTH 12 0
BBX 10 16 1 0
BITMAP
C000
C000
C000
C000
C000
C000
C000
C000
C000
C000
C000
C000
C000
C000
FFC0
FFC0
ENDCHAR

STARTCHAR M
ENCODING 77
SWIDTH 909 0
DWIDTH 18 0
BBX 16 16 1 0
BITMAP
E007
E007
F00F
F00F
F00F
D81B
D81B
CC33
CC33
CC33
C663
C663
C3C3
C3C3
C183
C183
ENDCHAR

STARTCHAR N
ENCODING 78
SWIDTH 734 0
DWIDTH 14 0
BBX 12 16 1 0
BITMAP
E030
F030
F030
D830
D830
CC30
CC30
C630
C630
C330
C330
C1B0
C1B0
C0F0
C0F0
C070
ENDCHAR

STARTCHAR O
ENCODING 79
SWIDTH 771 0
DWIDTH 17 0
BBX 15 16 1 0
BITMAP
07C0
1FF0
3C78
701C
600C
E00E
C006
C006
C006
C006
E00E
600C
701C
3C78
1FF0
07C0
ENDCHAR

STARTCHAR P
ENCODING 80
SWIDTH 603 0
DWIDTH 13 0
BBX 11 16 1 0
BITMAP
FF00
FFC0
C0C0
C060
C060
C060
C0C0
FFC0
FF00
C000
C000
C000
C000
C000
C000
C000
ENDCHAR

STARTCHAR Q
ENCODING 81
SWIDTH 771 0
DWIDTH 17 0
BBX 15 17 1 -1
BITMAP
07C0
1FF0
3C78
701C
600C
E00E
C006
C006
C006
C006
E08E
61CC
70FC
3C78
1FF8
07DC
000E
ENDCHAR

STARTCHAR R
ENCODING 82
SWIDTH 648 0
DWIDTH 13 0
BBX 11 16 1 0
BITMAP
FF00
FFC0
C0C0
C060
C060
C060
C0C0
FFC0
FF80
C1C0
C0C0
C060
C060
C060
C060
C060
ENDCHAR

STARTCHAR S
ENCODING 83
SWIDTH 656 0
DWIDTH 14 0
BBX 12 16 1 0
BITMAP
1F00
7FC0
E1E0
C060
C000
E000
7800
3F00
0FC0
01E0
0070
0030
C030
F070
7FE0
1F80
ENDCHAR

STARTCHAR T
ENCODING 84
SWIDTH 603 0
DWIDTH 12 0
BBX 12 16 0 0
BITMAP
FFF0
FFF0
0600
0600
0600
0600
0600
0600
0600
0600
0600
0600
0600
0600
0600
0600
ENDCHAR

STARTCHAR U
ENCODING 85
SWIDTH 728 0
DWIDTH 14 0
BBX 12 16 1 0
BITMAP
C030
C030
C030
C030
C030
C030
C030
C030
C030
C030
C030
C030
6060
70E0
3FC0
0F00
ENDCHAR

STARTCHAR V
ENCODING 86
SWIDTH 657 0
DWIDTH 16 0
BBX 14 16 1 0
BITMAP
C00C
C00C
E01C
6018
7038
3030
3030
3870
1860
1CE0
0CC0
0CC0
0780
0780
0300
0300
ENDCHAR

STARTCHAR W
ENCODING 87
SWIDTH 977 0
DWIDTH 21 0
BBX 19 16 1 0
BITMAP
C04060
C04060
E0E0E0
60E0C0
61F0C0
71B1C0
31B180
33B980
331980
3B1B80
1B1B00
1E0F00
1E0F00
0C0600
0C0600
0C0600
ENDCHAR

STARTCHAR X
ENCODING 88
SWIDTH 700 0
DWIDTH 17 0
BBX 17 16 0 0
BITMAP
E00380
700700
380E00
1C1C00
0E3800
077000
03E000
01C000
01C000
03E000
077000
0E3800
1C1C00
380E00
700700
E00380
ENDCHAR

STARTCHAR Y
ENCODING 89
SWIDTH 657 0
DWIDTH 16 0
BBX 14 16 1 0
BITMAP
C00C
E01C
6018
3030
3870
1860
0CC0
0FC0
0780
0300
0300
0300
0300
0300
0300
0300
ENDCHAR

STARTCHAR Z
ENCODING 90
SWIDTH 602 0
DWIDTH 14 0
BBX 12 16 1 0
BITMAP
FFF0
FFF0
0030
0060
00E0
01C0
0380
0700
0E00
1C00
3800
7000
6000
C000
FFF0
FFF0
ENDCHAR

STARTCHAR OpenBracket
ENCODING 91
SWIDTH 315 0
DWIDTH 8 0
BBX 5 22 2 -3
BITMAP
F8
F8
C0
C0
C0
C0
C0
C0
C0
C0
C0
C0
C0
C0
C0
C0
C0
C0
C0
C0
F8
F8
ENDCHAR

STARTCHAR BackSlash
ENCODING 92
SWIDTH 370 0
DWIDTH 13 0
BBX 12 22 1 -3
BITMAP
C000
C000
6000
6000
3000
3000
1800
1800
0C00
0C00
0600
0600
0300
0300
0180
0180
00C0
00C0
0060
0060
0030
0030
ENDCHAR

STARTCHAR CloseBracket
ENCODING 93
SWIDTH 315 0
DWIDTH 8 0
BBX 5 22 1 -3
BITMAP
F8
F8
18
18
18
18
18
18
18
18
18
18
18
18
18
18
18
18
18
18
F8
F8
ENDCHAR

STARTCHAR Circumflex
ENCODING 94
SWIDTH 1000 0
DWIDTH 22 0
BBX 14 7 4 9
BITMAP
0300
0780
0FC0
1CE0
3870
7038
E01C
ENDCHAR

STARTCHAR Underscore
ENCODING 95
SWIDTH 500 0
DWIDTH 13 0
BBX 13 2 0 -2
BITMAP
FFF8
FFF8
ENDCHAR

STARTCHAR SingleOpenQuot
ENCODING 96
SWIDTH 255 0
DWIDTH 7 0
BBX 5 6 1 11
BITMAP
08
18
30
70
E0
E0
ENDCHAR

STARTCHAR a
ENCODING 97
SWIDTH 531 0
DWIDTH 12 0
BBX 10 10 1 0
BITMAP
1F00
7F80
6180
00C0
1FC0
7FC0
E0C0
C1C0
FFC0
7CC0
ENDCHAR

STARTCHAR b
ENCODING 98
SWIDTH 602 0
DWIDTH 12 0
BBX 10 16 1 0
BITMAP
C000
C000
C000
C000
C000
C000
DE00
FF80
E180
C0C0
C0C0
C0C0
C0C0
E180
FF80
DE00
ENDCHAR

STARTCHAR c
ENCODING 99
SWIDTH 516 0
DWIDTH 11 0
BBX 9 10 1 0
BITMAP
1E00
7F80
6180
C000
C000
C000
C000
6180
7F80
1E00
ENDCHAR

STARTCHAR d
ENCODING 100
SWIDTH 602 0
DWIDTH 12 0
BBX 10 16 1 0
BITMAP
00C0
00C0
00C0
00C0
00C0
00C0
1EC0
7FC0
61C0
C0C0
C0C0
C0C0
C0C0
61C0
7FC0
1EC0
ENDCHAR

STARTCHAR e
ENCODING 101
SWIDTH 551 0
DWIDTH 12 0
BBX 10 10 1 0
BITMAP
1E00
7F80
6180
C0C0
FFC0
FFC0
C000
60C0
7FC0
1F00
ENDCHAR

STARTCHAR f
ENCODING 102
SWIDTH 308 0
DWIDTH 8 0
BBX 8 16 0 0
BITMAP
0F
1F
38
30
30
30
FF
FF
30
30
30
30
30
30
30
30
ENDCHAR

STARTCHAR g
ENCODING 103
SWIDTH 593 0
DWIDTH 12 0
BBX 10 15 1 -5
BITMAP
1EC0
7FC0
61C0
C0C0
C0C0
C0C0
C0C0
61C0
7FC0
1EC0
00C0
00C0
61C0
7F80
1F00
ENDCHAR

STARTCHAR h
ENCODING 104
SWIDTH 588 0
DWIDTH 11 0
BBX 9 16 1 0
BITMAP
C000
C000
C000
C000
C000
C000
DE00
FF00
E380
C180
C180
C180
C180
C180
C180
C180
ENDCHAR

STARTCHAR i
ENCODING 105
SWIDTH 250 0
DWIDTH 6 0
BBX 2 16 2 0
BITMAP
C0
C0
C0
00
00
00
C0
C0
C0
C0
C0
C0
C0
C0
C0
C0
ENDCHAR

STARTCHAR j
ENCODING 106
SWIDTH 250 0
DWIDTH 6 0
BBX 4 21 0 -5
BITMAP
30
30
30
00
00
00
30
30
30
30
30
30
30
30
30
30
30
30
30
F0
E0
ENDCHAR

STARTCHAR k
ENCODING 107
SWIDTH 492 0
DWIDTH 10 0
BBX 8 16 1 0
BITMAP
C0
C0
C0
C0
C0
C0
C3
C6
CC
D8
F0
F0
D8
CC
C6
C3
ENDCHAR

STARTCHAR l
ENCODING 108
SWIDTH 250 0
DWIDTH 6 0
BBX 2 16 2 0
BITMAP
C0
C0
C0
C0
C0
C0
C0
C0
C0
C0
C0
C0
C0
C0
C0
C0
ENDCHAR

STARTCHAR m
ENCODING 109
SWIDTH 913 0
DWIDTH 18 0
BBX 16 10 1 0
BITMAP
DE3C
FF7E
E3C7
C183
C183
C183
C183
C183
C183
C183
ENDCHAR

STARTCHAR n
ENCODING 110
SWIDTH 588 0
DWIDTH 11 0
BBX 9 10 1 0
BITMAP
DE00
FF00
E380
C180
C180
C180
C180
C180
C180
C180
ENDCHAR

STARTCHAR o
ENCODING 111
SWIDTH 602 0
DWIDTH 12 0
BBX 10 10 1 0
BITMAP
1E00
7F80
6180
C0C0
C0C0
C0C0
C0C0
6180
7F80
1E00
ENDCHAR

STARTCHAR p
ENCODING 112
SWIDTH 602 0
DWIDTH 12 0
BBX 10 15 1 -5
BITMAP
DE00
FF80
E180
C0C0
C0C0
C0C0
C0C0
E180
FF80
DE00
C000
C000
C000
C000
C000
ENDCHAR

STARTCHAR q
ENCODING 113
SWIDTH 602 0
DWIDTH 12 0
BBX 10 15 1 -5
BITMAP
1EC0
7FC0
61C0
C0C0
C0C0
C0C0
C0C0
61C0
7FC0
1EC0
00C0
00C0
00C0
00C0
00C0
ENDCHAR

STARTCHAR r
ENCODING 114
SWIDTH 370 0
DWIDTH 9 0
BBX 7 10 1 0
BITMAP
DE
FE
E0
C0
C0
C0
C0
C0
C0
C0
ENDCHAR

STARTCHAR s
ENCODING 115
SWIDTH 491 0
DWIDTH 11 0
BBX 9 10 1 0
BITMAP
3E00
7F80
C180
E000
7C00
1F00
0380
C180
FF80
3E00
ENDCHAR

STARTCHAR t
ENCODING 116
SWIDTH 317 0
DWIDTH 9 0
BBX 7 14 1 0
BITMAP
10
30
30
30
FE
FE
30
30
30
30
30
30
3E
1E
ENDCHAR

STARTCHAR u
ENCODING 117
SWIDTH 588 0
DWIDTH 11 0
BBX 9 10 1 0
BITMAP
C180
C180
C180
C180
C180
C180
C180
E380
7F80
3D80
ENDCHAR

STARTCHAR v
ENCODING 118
SWIDTH 543 0
DWIDTH 12 0
BBX 10 10 1 0
BITMAP
C0C0
C0C0
6180
6180
3300
3300
1E00
1E00
0C00
0C00
ENDCHAR

STARTCHAR w
ENCODING 119
SWIDTH 810 0
DWIDTH 16 0
BBX 14 10 1 0
BITMAP
C30C
C30C
C30C
6798
6798
6498
3CF0
3CF0
1860
1860
ENDCHAR

STARTCHAR x
ENCODING 120
SWIDTH 546 0
DWIDTH 11 0
BBX 11 10 0 0
BITMAP
E0E0
71C0
3180
1B00
0E00
0E00
1B00
3180
71C0
E0E0
ENDCHAR

STARTCHAR y
ENCODING 121
SWIDTH 543 0
DWIDTH 12 0
BBX 10 15 1 -5
BITMAP
C0C0
C0C0
6180
6180
3300
3300
1E00
1E00
0C00
0C00
1800
1800
3000
3000
6000
ENDCHAR

STARTCHAR z
ENCODING 122
SWIDTH 439 0
DWIDTH 11 0
BBX 9 10 1 0
BITMAP
FF80
FF80
0300
0600
0C00
1800
3000
6000
FF80
FF80
ENDCHAR

STARTCHAR OpenBrace
ENCODING 123
SWIDTH 500 0
DWIDTH 11 0
BBX 8 22 2 -3
BITMAP
07
0F
1C
18
18
18
18
18
18
38
F0
F0
38
18
18
18
18
18
18
1C
0F
07
ENDCHAR

STARTCHAR LongVertMark
ENCODING 124
SWIDTH 500 0
DWIDTH 12 0
BBX 2 18 5 -1
BITMAP
C0
C0
C0
C0
C0
C0
C0
C0
C0
C0
C0
C0
C0
C0
C0
C0
C0
C0
ENDCHAR

STARTCHAR CloseBrace
ENCODING 125
SWIDTH 500 0
DWIDTH 11 0
BBX 8 22 1 -3
BITMAP
E0
F0
38
18
18
18
18
18
18
1C
0F
0F
1C
18
18
18
18
18
18
38
F0
E0
ENDCHAR

STARTCHAR OneWavyLine
ENCODING 126
SWIDTH 833 0
DWIDTH 16 0
BBX 14 4 1 5
BITMAP
3C0C
7F1C
E3F8
C0F0
ENDCHAR

STARTCHAR MediumShading
ENCODING 127
SWIDTH 1000 0
DWIDTH 24 0
BBX 24 26 0 -6
BITMAP
E38E38
E38E38
E38E38
1C71C7
1C71C7
1C71C7
E38E38
E38E38
E38E38
1C71C7
1C71C7
1C71C7
E38E38
E38E38
E38E38
1C71C7
1C71C7
1C71C7
E38E38
E38E38
E38E38
E38E38
1C71C7
1C71C7
1C71C7
1C71C7
ENDCHAR

STARTCHAR InvExclamation
ENCODING 161
SWIDTH 370 0
DWIDTH 8 0
BBX 3 18 3 -1
BITMAP
E0
E0
E0
00
00
E0
E0
E0
E0
E0
E0
E0
E0
E0
E0
E0
E0
E0
ENDCHAR

STARTCHAR CentSign
ENCODING 162
SWIDTH 553 0
DWIDTH 12 0
BBX 9 16 1 -3
BITMAP
0180
0180
0100
1F00
7F80
6780
C400
CC00
CC00
C800
7980
7F80
3E00
2000
6000
6000
ENDCHAR

STARTCHAR SterlingSign
ENCODING 163
SWIDTH 370 0
DWIDTH 12 0
BBX 10 16 1 0
BITMAP
0F00
3F80
31C0
60C0
6000
6000
FE00
FE00
6000
6000
FE00
FE00
6000
6000
FFC0
FFC0
ENDCHAR

STARTCHAR CurrencySymbol
ENCODING 164
SWIDTH 606 0
DWIDTH 15 0
BBX 13 13 1 3
BITMAP
4010
E738
7FF0
38E0
3060
6030
6030
6030
3060
38E0
7FF0
E738
4010
ENDCHAR

STARTCHAR Yensign
ENCODING 165
SWIDTH 606 0
DWIDTH 14 0
BBX 12 16 1 0
BITMAP
C030
E070
6060
70E0
30C0
1980
F9F0
FFF0
0F00
0600
FFF0
FFF0
0600
0600
0600
0600
ENDCHAR

STARTCHAR BrokenBar
ENCODING 166
SWIDTH 500 0
DWIDTH 12 0
BBX 2 26 5 -6
BITMAP
00
00
00
C0
C0
C0
C0
C0
C0
C0
C0
00
00
C0
C0
C0
C0
C0
C0
C0
C0
00
00
00
00
00
ENDCHAR

STARTCHAR SectionMark
ENCODING 167
SWIDTH 528 0
DWIDTH 10 0
BBX 8 19 1 -3
BITMAP
3C
7E
E7
C3
E0
70
3C
6E
C7
C3
E3
76
3C
0E
07
C3
E7
7E
3C
ENDCHAR

STARTCHAR diaeresisAccnt
ENCODING 168
SWIDTH 500 0
DWIDTH 12 0
BBX 7 3 3 12
BITMAP
C6
C6
C6
ENDCHAR

STARTCHAR CopyrightSign
ENCODING 169
SWIDTH 516 0
DWIDTH 12 0
BBX 10 26 1 -6
BITMAP
0000
0000
0000
0000
1E00
7F80
6180
CEC0
D2C0
D0C0
D0C0
CEC0
6180
7F80
1E00
0000
0000
0000
0000
0000
0000
0000
0000
0000
0000
0000
ENDCHAR

STARTCHAR FemaleOrdinal
ENCODING 170
SWIDTH 370 0
DWIDTH 10 0
BBX 8 14 1 2
BITMAP
1E
7F
63
03
1F
7B
63
C3
FF
7B
00
00
FF
FF
ENDCHAR

STARTCHAR DblOpenAnglQut
ENCODING 171
SWIDTH 489 0
DWIDTH 12 0
BBX 10 10 1 1
BITMAP
18C0
3180
7380
6300
C600
C600
6300
7380
3180
18C0
ENDCHAR

STARTCHAR NotSign
ENCODING 172
SWIDTH 331 0
DWIDTH 16 0
BBX 12 26 2 -6
BITMAP
0000
0000
0000
0000
0000
0000
0000
0000
0000
0000
0000
0000
FFF0
FFF0
0030
0030
0030
0030
0000
0000
0000
0000
0000
0000
0000
0000
ENDCHAR

STARTCHAR SoftHyphen
ENCODING 173
SWIDTH 331 0
DWIDTH 16 0
BBX 12 26 2 -6
BITMAP
0000
0000
0000
0000
0000
0000
0000
0000
0000
0000
0000
0000
1F80
1F80
0000
0000
0000
0000
0000
0000
0000
0000
0000
0000
0000
0000
ENDCHAR

STARTCHAR RegTradeMark
ENCODING 174
SWIDTH 516 0
DWIDTH 12 0
BBX 10 26 1 -6
BITMAP
0000
0000
0000
0000
1E00
7F80
6180
DCC0
D2C0
DCC0
D2C0
6180
7F80
1E00
0000
0000
0000
0000
0000
0000
0000
0000
0000
0000
0000
0000
ENDCHAR

STARTCHAR Macron
ENCODING 175
SWIDTH 331 0
DWIDTH 16 0
BBX 12 26 2 -6
BITMAP
0000
0000
0000
0000
7FE0
0000
0000
0000
0000
0000
0000
0000
0000
0000
0000
0000
0000
0000
0000
0000
0000
0000
0000
0000
0000
0000
ENDCHAR

STARTCHAR DegreeSign
ENCODING 176
SWIDTH 329 0
DWIDTH 10 0
BBX 8 8 1 8
BITMAP
18
7E
66
C3
C3
66
7E
18
ENDCHAR

STARTCHAR PlusOverMinus
ENCODING 177
SWIDTH 833 0
DWIDTH 16 0
BBX 12 14 2 1
BITMAP
0600
0600
0600
0600
FFF0
FFF0
0600
0600
0600
0600
0000
0000
FFF0
FFF0
ENDCHAR

STARTCHAR SuperscriptTwo
ENCODING 178
SWIDTH 864 0
DWIDTH 8 0
BBX 6 26 1 -6
BITMAP
00
00
00
00
78
CC
CC
0C
18
30
60
C0
C0
FC
00
00
00
00
00
00
00
00
00
00
00
00
ENDCHAR

STARTCHAR Superscript3
ENCODING 179
SWIDTH 864 0
DWIDTH 8 0
BBX 6 26 1 -6
BITMAP
00
00
00
00
78
CC
CC
0C
38
0C
0C
CC
CC
78
00
00
00
00
00
00
00
00
00
00
00
00
ENDCHAR

STARTCHAR acuteAccent
ENCODING 180
SWIDTH 500 0
DWIDTH 12 0
BBX 6 4 4 11
BITMAP
1C
38
70
C0
ENDCHAR

STARTCHAR muGreek
ENCODING 181
SWIDTH 563 0
DWIDTH 15 0
BBX 14 15 0 -5
BITMAP
0C0C
0C0C
0C18
1818
1818
1830
3830
3C70
2FFC
679C
6000
6000
C000
C000
C000
ENDCHAR

STARTCHAR ParagraphSign
ENCODING 182
SWIDTH 500 0
DWIDTH 13 0
BBX 12 16 1 0
BITMAP
3FF0
7FF0
FCC0
FCC0
FCC0
FCC0
FCC0
7CC0
3CC0
0CC0
0CC0
0CC0
0CC0
0CC0
0CC0
0CC0
ENDCHAR

STARTCHAR middleDot
ENCODING 183
SWIDTH 370 0
DWIDTH 12 0
BBX 3 3 5 12
BITMAP
E0
E0
E0
ENDCHAR

STARTCHAR Cedilla
ENCODING 184
SWIDTH 662 0
DWIDTH 16 0
BBX 14 26 1 -6
BITMAP
0000
0000
0000
0000
0000
0000
0000
0000
0000
0000
0000
0000
0000
0000
0000
0000
0000
0000
0000
0000
0100
01C0
0060
0660
03C0
0000
ENDCHAR

STARTCHAR SuperscriptOne
ENCODING 185
SWIDTH 864 0
DWIDTH 8 0
BBX 4 26 2 -6
BITMAP
00
00
00
00
30
70
B0
30
30
30
30
30
30
30
00
00
00
00
00
00
00
00
00
00
00
00
ENDCHAR

STARTCHAR MaleOrdinal
ENCODING 186
SWIDTH 370 0
DWIDTH 10 0
BBX 8 14 1 2
BITMAP
18
7E
66
C3
C3
C3
C3
66
7E
18
00
00
FF
FF
ENDCHAR

STARTCHAR DblClosAnglQut
ENCODING 187
SWIDTH 489 0
DWIDTH 12 0
BBX 10 10 1 1
BITMAP
C600
6300
7380
3180
18C0
18C0
3180
7380
6300
C600
ENDCHAR

STARTCHAR FracOneFourth
ENCODING 188
SWIDTH 864 0
DWIDTH 20 0
BBX 17 16 1 0
BITMAP
300C00
700C00
B01800
303000
303000
306000
30C700
30C700
318B00
318B00
031300
061300
062300
0C3F80
180300
180300
ENDCHAR

STARTCHAR FracOneHalf
ENCODING 189
SWIDTH 864 0
DWIDTH 20 0
BBX 18 16 1 0
BITMAP
300C00
700C00
B01800
303000
303000
306000
30C780
30CCC0
318CC0
3180C0
030180
060300
060600
0C0C00
180C00
180FC0
ENDCHAR

STARTCHAR FracThreeFour
ENCODING 190
SWIDTH 864 0
DWIDTH 20 0
BBX 18 16 1 0
BITMAP
780600
CC0600
CC0C00
0C1800
381800
0C3000
0C6380
CC6380
CCC580
78C580
018980
030980
031180
061FC0
0C0180
0C0180
ENDCHAR

STARTCHAR InvertQuestion
ENCODING 191
SWIDTH 491 0
DWIDTH 11 0
BBX 9 18 1 -1
BITMAP
1C00
1C00
1C00
0000
0000
1C00
1C00
1C00
1C00
3800
7000
E000
C000
C000
C000
E180
7F80
3E00
ENDCHAR

STARTCHAR Agrave
ENCODING 192
SWIDTH 713 0
DWIDTH 16 0
BBX 14 20 1 0
BITMAP
1C00
0E00
0700
0180
0000
0300
0780
0780
0CC0
0CC0
1CE0
1860
3870
3030
3FF0
7FF8
6018
E01C
C00C
C00C
ENDCHAR

STARTCHAR Aacute
ENCODING 193
SWIDTH 713 0
DWIDTH 16 0
BBX 14 20 1 0
BITMAP
00E0
01C0
0380
0600
0000
0300
0780
0780
0CC0
0CC0
1CE0
1860
3870
3030
3FF0
7FF8
6018
E01C
C00C
C00C
ENDCHAR

STARTCHAR Acircumflex
ENCODING 194
SWIDTH 713 0
DWIDTH 16 0
BBX 14 20 1 0
BITMAP
0300
0780
0CC0
1860
0000
0300
0780
0780
0CC0
0CC0
1CE0
1860
3870
3030
3FF0
7FF8
6018
E01C
C00C
C00C
ENDCHAR

STARTCHAR Atilde
ENCODING 195
SWIDTH 713 0
DWIDTH 16 0
BBX 14 20 1 0
BITMAP
0E20
1FE0
11C0
0000
0000
0300
0780
0780
0CC0
0CC0
1CE0
1860
3870
3030
3FF0
7FF8
6018
E01C
C00C
C00C
ENDCHAR

STARTCHAR Adiaeresis
ENCODING 196
SWIDTH 713 0
DWIDTH 16 0
BBX 14 20 1 0
BITMAP
1860
1860
1860
0000
0000
0300
0780
0780
0CC0
0CC0
1CE0
1860
3870
3030
3FF0
7FF8
6018
E01C
C00C
C00C
ENDCHAR

STARTCHAR Abolle
ENCODING 197
SWIDTH 713 0
DWIDTH 16 0
BBX 14 20 1 0
BITMAP
0780
0CC0
0CC0
0CC0
0780
0300
0780
0780
0CC0
0CC0
1CE0
1860
3870
3030
3FF0
7FF8
6018
E01C
C00C
C00C
ENDCHAR

STARTCHAR AEdiphthong
ENCODING 198
SWIDTH 984 0
DWIDTH 22 0
BBX 20 16 1 0
BITMAP
03FFF0
03FFF0
066000
066000
0C6000
0C6000
1C6000
187FF0
387FF0
306000
3FE000
7FE000
606000
E06000
C07FF0
C07FF0
ENDCHAR

STARTCHAR Ccedilla
ENCODING 199
SWIDTH 662 0
DWIDTH 16 0
BBX 14 21 1 -5
BITMAP
07C0
1FF0
3C78
701C
600C
E000
C000
C000
C000
C000
E000
600C
701C
3C78
1FF0
07C0
0100
01C0
0060
0660
03C0
ENDCHAR

STARTCHAR Egrave
ENCODING 200
SWIDTH 604 0
DWIDTH 13 0
BBX 11 20 1 0
BITMAP
7000
3800
1C00
0600
0000
FFE0
FFE0
C000
C000
C000
C000
FFE0
FFE0
C000
C000
C000
C000
C000
FFE0
FFE0
ENDCHAR

STARTCHAR Eacute
ENCODING 201
SWIDTH 604 0
DWIDTH 13 0
BBX 11 20 1 0
BITMAP
0380
0700
0E00
1800
0000
FFE0
FFE0
C000
C000
C000
C000
FFE0
FFE0
C000
C000
C000
C000
C000
FFE0
FFE0
ENDCHAR

STARTCHAR Ecircumflex
ENCODING 202
SWIDTH 604 0
DWIDTH 13 0
BBX 11 20 1 0
BITMAP
0400
0E00
1B00
3180
0000
FFE0
FFE0
C000
C000
C000
C000
FFE0
FFE0
C000
C000
C000
C000
C000
FFE0
FFE0
ENDCHAR

STARTCHAR Ediaeresis
ENCODING 203
SWIDTH 604 0
DWIDTH 13 0
BBX 11 20 1 0
BITMAP
3180
3180
3180
0000
0000
FFE0
FFE0
C000
C000
C000
C000
FFE0
FFE0
C000
C000
C000
C000
C000
FFE0
FFE0
ENDCHAR

STARTCHAR Igrave
ENCODING 204
SWIDTH 263 0
DWIDTH 6 0
BBX 5 20 0 0
BITMAP
C0
E0
70
18
00
30
30
30
30
30
30
30
30
30
30
30
30
30
30
30
ENDCHAR

STARTCHAR Iacute
ENCODING 205
SWIDTH 263 0
DWIDTH 6 0
BBX 5 20 1 0
BITMAP
18
38
70
C0
00
60
60
60
60
60
60
60
60
60
60
60
60
60
60
60
ENDCHAR

STARTCHAR Icircumflex
ENCODING 206
SWIDTH 263 0
DWIDTH 6 0
BBX 6 20 0 0
BITMAP
30
78
CC
84
00
30
30
30
30
30
30
30
30
30
30
30
30
30
30
30
ENDCHAR

STARTCHAR Idiaeresis
ENCODING 207
SWIDTH 263 0
DWIDTH 6 0
BBX 6 20 0 0
BITMAP
CC
CC
CC
00
00
30
30
30
30
30
30
30
30
30
30
30
30
30
30
30
ENDCHAR

STARTCHAR Eth
ENCODING 208
SWIDTH 724 0
DWIDTH 16 0
BBX 15 16 0 0
BITMAP
3FC0
3FF0
3078
301C
300C
300E
3006
FE06
FE06
3006
300E
300C
301C
3078
3FF0
3FC0
ENDCHAR

STARTCHAR Ntilde
ENCODING 209
SWIDTH 734 0
DWIDTH 14 0
BBX 12 20 1 0
BITMAP
1C40
3FC0
2380
0000
0000
E030
F030
F030
D830
D830
CC30
CC30
C630
C330
C330
C1B0
C1B0
C0F0
C0F0
C070
ENDCHAR

STARTCHAR Ograve
ENCODING 210
SWIDTH 771 0
DWIDTH 17 0
BBX 15 20 1 0
BITMAP
1C00
0E00
0700
0180
0000
07C0
1FF0
3C78
701C
600C
E00E
C006
C006
C006
E00E
600C
701C
3C78
1FF0
07C0
ENDCHAR

STARTCHAR Oacute
ENCODING 211
SWIDTH 771 0
DWIDTH 17 0
BBX 15 20 1 0
BITMAP
0070
00E0
01C0
0300
0000
07C0
1FF0
3C78
701C
600C
E00E
C006
C006
C006
E00E
600C
701C
3C78
1FF0
07C0
ENDCHAR

STARTCHAR Ocircumflex
ENCODING 212
SWIDTH 771 0
DWIDTH 17 0
BBX 15 20 1 0
BITMAP
0100
0380
06C0
0C60
0000
07C0
1FF0
3C78
701C
600C
E00E
C006
C006
C006
E00E
600C
701C
3C78
1FF0
07C0
ENDCHAR

STARTCHAR Otilde
ENCODING 213
SWIDTH 771 0
DWIDTH 17 0
BBX 15 20 1 0
BITMAP
0710
0FF0
08E0
0000
0000
07C0
1FF0
3C78
701C
600C
E00E
C006
C006
C006
E00E
600C
701C
3C78
1FF0
07C0
ENDCHAR

STARTCHAR Odiaeresis
ENCODING 214
SWIDTH 771 0
DWIDTH 17 0
BBX 15 20 1 0
BITMAP
0C60
0C60
0C60
0000
0000
07C0
1FF0
3C78
701C
600C
E00E
C006
C006
C006
E00E
600C
701C
3C78
1FF0
07C0
ENDCHAR

STARTCHAR Multiplication
ENCODING 215
SWIDTH 833 0
DWIDTH 16 0
BBX 12 26 2 -6
BITMAP
0000
0000
0000
0000
0000
0000
0000
0000
6060
70E0
39C0
1F80
0F00
0F00
1F80
39C0
70E0
6060
0000
0000
0000
0000
0000
0000
0000
0000
ENDCHAR

STARTCHAR Ooblique
ENCODING 216
SWIDTH 771 0
DWIDTH 17 0
BBX 15 20 1 -2
BITMAP
0018
0018
07F0
1FF0
3C78
707C
60CC
E0CE
C186
C186
C306
C306
E60E
660C
7C1C
3C78
1FF0
1FC0
3000
3000
ENDCHAR

STARTCHAR Ugrave
ENCODING 217
SWIDTH 728 0
DWIDTH 14 0
BBX 12 20 1 0
BITMAP
7000
3800
1C00
0600
0000
C030
C030
C030
C030
C030
C030
C030
C030
C030
C030
C030
6060
70E0
3FC0
0F00
ENDCHAR

STARTCHAR Uacute
ENCODING 218
SWIDTH 728 0
DWIDTH 14 0
BBX 12 20 1 0
BITMAP
01C0
0380
0700
0C00
0000
C030
C030
C030
C030
C030
C030
C030
C030
C030
C030
C030
6060
70E0
3FC0
0F00
ENDCHAR

STARTCHAR Ucircumflex
ENCODING 219
SWIDTH 728 0
DWIDTH 14 0
BBX 12 20 1 0
BITMAP
0600
0F00
1980
30C0
0000
C030
C030
C030
C030
C030
C030
C030
C030
C030
C030
C030
6060
70E0
3FC0
0F00
ENDCHAR

STARTCHAR Udiaeresis
ENCODING 220
SWIDTH 728 0
DWIDTH 14 0
BBX 12 20 1 0
BITMAP
30C0
30C0
30C0
0000
0000
C030
C030
C030
C030
C030
C030
C030
C030
C030
C030
C030
6060
70E0
3FC0
0F00
ENDCHAR

STARTCHAR Yacute
ENCODING 221
SWIDTH 657 0
DWIDTH 16 0
BBX 14 20 1 0
BITMAP
00E0
01C0
0380
0600
0000
C00C
E01C
7038
3030
1860
1CE0
0FC0
0780
0300
0300
0300
0300
0300
0300
0300
ENDCHAR

STARTCHAR Thorn
ENCODING 222
SWIDTH 603 0
DWIDTH 13 0
BBX 11 16 1 0
BITMAP
C000
C000
FF00
FFC0
C0C0
C060
C060
C060
C0C0
FFC0
FF00
C000
C000
C000
C000
C000
ENDCHAR

STARTCHAR EsZetLigature
ENCODING 223
SWIDTH 644 0
DWIDTH 13 0
BBX 11 16 1 0
BITMAP
1F00
7F80
61C0
C0C0
C0C0
C180
C700
C780
C1C0
C0C0
C060
C060
CC60
CCE0
CFC0
C780
ENDCHAR

STARTCHAR agrave
ENCODING 224
SWIDTH 531 0
DWIDTH 12 0
BBX 10 15 1 0
BITMAP
7000
3800
1C00
0600
0000
1F00
7F80
6180
00C0
1FC0
7FC0
E0C0
C1C0
FFC0
7CC0
ENDCHAR

STARTCHAR aacute
ENCODING 225
SWIDTH 531 0
DWIDTH 12 0
BBX 10 15 1 0
BITMAP
0380
0700
0E00
1800
0000
1F00
7F80
6180
00C0
1FC0
7FC0
E0C0
C1C0
FFC0
7CC0
ENDCHAR

STARTCHAR acircumflex
ENCODING 226
SWIDTH 531 0
DWIDTH 12 0
BBX 10 15 1 0
BITMAP
0400
0E00
1B00
3180
0000
1F00
7F80
6180
00C0
1FC0
7FC0
E0C0
C1C0
FFC0
7CC0
ENDCHAR

STARTCHAR atilde
ENCODING 227
SWIDTH 531 0
DWIDTH 12 0
BBX 10 15 1 0
BITMAP
1C40
3FC0
2380
0000
0000
1F00
7F80
6180
00C0
1FC0
7FC0
E0C0
C1C0
FFC0
7CC0
ENDCHAR

STARTCHAR adiaeresis
ENCODING 228
SWIDTH 531 0
DWIDTH 12 0
BBX 10 15 1 0
BITMAP
3180
3180
3180
0000
0000
1F00
7F80
6180
00C0
1FC0
7FC0
E0C0
C1C0
FFC0
7CC0
ENDCHAR

STARTCHAR abolle
ENCODING 229
SWIDTH 531 0
DWIDTH 12 0
BBX 10 16 1 0
BITMAP
1E00
3300
3300
3300
1E00
0000
1F00
7F80
6180
00C0
1FC0
7FC0
E0C0
C1C0
FFC0
7CC0
ENDCHAR

STARTCHAR aedihthong
ENCODING 230
SWIDTH 898 0
DWIDTH 19 0
BBX 17 10 1 0
BITMAP
1E3C00
7FFF00
63C300
018180
1FFF80
7FFF80
E18000
C3C180
FFFF80
7C3E00
ENDCHAR

STARTCHAR ccedilla
ENCODING 231
SWIDTH 516 0
DWIDTH 11 0
BBX 9 15 1 -5
BITMAP
1E00
7F80
6180
C000
C000
C000
C000
6180
7F80
1E00
0800
0E00
0300
3300
1E00
ENDCHAR

STARTCHAR egrave
ENCODING 232
SWIDTH 551 0
DWIDTH 12 0
BBX 10 15 1 0
BITMAP
7000
3800
1C00
0600
0000
1E00
7F80
6180
C0C0
FFC0
FFC0
C000
60C0
7FC0
1F00
ENDCHAR

STARTCHAR eacute
ENCODING 233
SWIDTH 551 0
DWIDTH 12 0
BBX 10 15 1 0
BITMAP
0380
0700
0E00
1800
0000
1E00
7F80
6180
C0C0
FFC0
FFC0
C000
60C0
7FC0
1F00
ENDCHAR

STARTCHAR ecircumflex
ENCODING 234
SWIDTH 551 0
DWIDTH 12 0
BBX 10 15 1 0
BITMAP
0C00
1E00
3300
6180
0000
1E00
7F80
6180
C0C0
FFC0
FFC0
C000
60C0
7FC0
1F00
ENDCHAR

STARTCHAR ediaeresis
ENCODING 235
SWIDTH 551 0
DWIDTH 12 0
BBX 10 15 1 0
BITMAP
6180
6180
6180
0000
0000
1E00
7F80
6180
C0C0
FFC0
FFC0
C000
60C0
7FC0
1F00
ENDCHAR

STARTCHAR igrave
ENCODING 236
SWIDTH 250 0
DWIDTH 6 0
BBX 5 15 0 0
BITMAP
C0
E0
70
18
00
30
30
30
30
30
30
30
30
30
30
ENDCHAR

STARTCHAR iacute
ENCODING 237
SWIDTH 250 0
DWIDTH 6 0
BBX 5 15 1 0
BITMAP
18
38
70
C0
00
60
60
60
60
60
60
60
60
60
60
ENDCHAR

STARTCHAR icircumflex
ENCODING 238
SWIDTH 250 0
DWIDTH 6 0
BBX 6 15 0 0
BITMAP
30
78
CC
84
00
30
30
30
30
30
30
30
30
30
30
ENDCHAR

STARTCHAR idiaeresis
ENCODING 239
SWIDTH 250 0
DWIDTH 6 0
BBX 6 15 0 0
BITMAP
CC
CC
CC
00
00
30
30
30
30
30
30
30
30
30
30
ENDCHAR

STARTCHAR ethIcelandic
ENCODING 240
SWIDTH 602 0
DWIDTH 12 0
BBX 10 16 1 0
BITMAP
30C0
3DC0
0F00
3B00
3180
0180
1EC0
7FC0
61C0
C0C0
C0C0
C0C0
C0C0
6180
7F80
1E00
ENDCHAR

STARTCHAR ntilde
ENCODING 241
SWIDTH 588 0
DWIDTH 11 0
BBX 9 15 1 0
BITMAP
3880
7F80
4700
0000
0000
DE00
FF00
E380
C180
C180
C180
C180
C180
C180
C180
ENDCHAR

STARTCHAR ograve
ENCODING 242
SWIDTH 602 0
DWIDTH 12 0
BBX 10 15 1 0
BITMAP
7000
3800
1C00
0600
0000
1E00
7F80
6180
C0C0
C0C0
C0C0
C0C0
6180
7F80
1E00
ENDCHAR

STARTCHAR oacute
ENCODING 243
SWIDTH 602 0
DWIDTH 12 0
BBX 10 15 1 0
BITMAP
0380
0700
0E00
1800
0000
1E00
7F80
6180
C0C0
C0C0
C0C0
C0C0
6180
7F80
1E00
ENDCHAR

STARTCHAR ocircumflex
ENCODING 244
SWIDTH 602 0
DWIDTH 12 0
BBX 10 15 1 0
BITMAP
0C00
1E00
3300
6180
0000
1E00
7F80
6180
C0C0
C0C0
C0C0
C0C0
6180
7F80
1E00
ENDCHAR

STARTCHAR otilde
ENCODING 245
SWIDTH 602 0
DWIDTH 12 0
BBX 10 15 1 0
BITMAP
3880
7F80
4700
0000
0000
1E00
7F80
6180
C0C0
C0C0
C0C0
C0C0
6180
7F80
1E00
ENDCHAR

STARTCHAR odiaeresis
ENCODING 246
SWIDTH 602 0
DWIDTH 12 0
BBX 10 15 1 0
BITMAP
6180
6180
6180
0000
0000
1E00
7F80
6180
C0C0
C0C0
C0C0
C0C0
6180
7F80
1E00
ENDCHAR

STARTCHAR DivideSign
ENCODING 247
SWIDTH 331 0
DWIDTH 16 0
BBX 12 26 2 -6
BITMAP
0000
0000
0000
0000
0000
0000
0000
0600
0F00
0600
0000
0000
FFF0
FFF0
0000
0000
0600
0F00
0600
0000
0000
0000
0000
0000
0000
0000
ENDCHAR

STARTCHAR ooblique
ENCODING 248
SWIDTH 602 0
DWIDTH 12 0
BBX 10 14 1 -2
BITMAP
0080
0180
1F00
7F80
6380
C6C0
CCC0
CCC0
D8C0
7180
7F80
3E00
6000
4000
ENDCHAR

STARTCHAR ugrave
ENCODING 249
SWIDTH 588 0
DWIDTH 11 0
BBX 9 15 1 0
BITMAP
E000
7000
3800
0C00
0000
C180
C180
C180
C180
C180
C180
C180
E380
7F80
3D80
ENDCHAR

STARTCHAR uacute
ENCODING 250
SWIDTH 588 0
DWIDTH 11 0
BBX 9 15 1 0
BITMAP
0700
0E00
1C00
3000
0000
C180
C180
C180
C180
C180
C180
C180
E380
7F80
3D80
ENDCHAR

STARTCHAR ucircumflex
ENCODING 251
SWIDTH 588 0
DWIDTH 11 0
BBX 9 15 1 0
BITMAP
0800
1C00
3600
6300
0000
C180
C180
C180
C180
C180
C180
C180
E380
7F80
3D80
ENDCHAR

STARTCHAR udiaeresis
ENCODING 252
SWIDTH 588 0
DWIDTH 11 0
BBX 9 15 1 0
BITMAP
6300
6300
6300
0000
0000
C180
C180
C180
C180
C180
C180
C180
E380
7F80
3D80
ENDCHAR

STARTCHAR yacute
ENCODING 253
SWIDTH 543 0
DWIDTH 12 0
BBX 10 20 1 -5
BITMAP
0380
0700
0E00
1800
0000
C0C0
C0C0
6180
6180
3300
3300
1E00
1E00
0C00
0C00
1800
1800
3000
3000
6000
ENDCHAR

STARTCHAR thorn
ENCODING 254
SWIDTH 602 0
DWIDTH 12 0
BBX 10 21 1 -5
BITMAP
C000
C000
C000
C000
C000
C000
DE00
FF80
E180
C0C0
C0C0
C0C0
C0C0
E180
FF80
DE00
C000
C000
C000
C000
C000
ENDCHAR

STARTCHAR ydiaeresis
ENCODING 255
SWIDTH 543 0
DWIDTH 12 0
BBX 10 20 1 -5
BITMAP
6180
6180
6180
0000
0000
C0C0
C0C0
6180
6180
3300
3300
1E00
1E00
0C00
0C00
1800
1800
3000
3000
6000
ENDCHAR
ENDFONT
